<!-- <?xml version="1.0" encoding="utf-8"?> -->
<svg version="1.1" id="Layer_1" xmlns="http://www.w3.org/2000/svg" xmlns:xlink="http://www.w3.org/1999/xlink" x="0px" y="0px"
	 viewBox="0 0 100 100" style="enable-background:new 0 0 300 100;" xml:space="preserve">
<!-- <style type="text/css">
	.st0{fill-rule:evenodd;clip-rule:evenodd;}
</style> -->
<g>
	<path 
		style="fill:#c5c4c4;"
		class="st0" 
		d="M50,36.9c-6.2,0-11.3,5-11.3,11.2c0,6.2,5,11.3,11.2,11.3c6.2,0,11.3-5,11.3-11.2C61.3,42,56.2,36.9,50,36.9
		C50,36.9,50,36.9,50,36.9z M83.8,36.9c-6.2,0-11.3,5-11.3,11.2s5,11.3,11.2,11.3c6.2,0,11.3-5,11.3-11.2C95,42,90,36.9,83.8,36.9
		C83.8,36.9,83.8,36.9,83.8,36.9L83.8,36.9z M16.2,36.9C10,36.9,5,41.9,5,48.1c0,6.2,5,11.3,11.2,11.3c6.2,0,11.3-5,11.3-11.2
		C27.5,42,22.5,36.9,16.2,36.9C16.2,36.9,16.2,36.9,16.2,36.9L16.2,36.9z"/>
</g>
</svg>
